<svg xmlns="http://www.w3.org/2000/svg" xmlns:xlink="http://www.w3.org/1999/xlink" width="500" zoomAndPan="magnify" viewBox="0 0 375 374.999991" height="500" preserveAspectRatio="xMidYMid meet" version="1.0"><defs><g/></defs><g fill="#d9d9d9" fill-opacity="1"><g transform="translate(53.116092, 198.743526)"><g><path d="M 21.453125 -42.25 L 21.453125 -11.9375 C 21.453125 -7.800781 20.316406 -4.648438 18.046875 -2.484375 C 15.773438 -0.316406 12.523438 0.765625 8.296875 0.765625 C 7.171875 0.765625 6.0625 0.628906 4.96875 0.359375 C 3.875 0.0859375 2.953125 -0.242188 2.203125 -0.640625 C 1.453125 -1.035156 0.773438 -1.4375 0.171875 -1.84375 C -0.421875 -2.25 -0.851562 -2.59375 -1.125 -2.875 L -1.59375 -3.28125 L 1.484375 -11.3125 C 3.492188 -9.40625 5.320312 -8.453125 6.96875 -8.453125 C 8.4375 -8.453125 9.613281 -8.9375 10.5 -9.90625 C 11.382812 -10.875 11.828125 -12.367188 11.828125 -14.390625 L 11.828125 -42.25 Z M 21.453125 -42.25 "/></g></g></g><g fill="#d9d9d9" fill-opacity="1"><g transform="translate(72.314407, 198.743526)"><g><path d="M 35.53125 -42.25 L 35.53125 -15 C 35.53125 -9.8125 34.128906 -5.882812 31.328125 -3.21875 C 28.535156 -0.5625 24.441406 0.765625 19.046875 0.765625 C 13.648438 0.765625 9.550781 -0.5625 6.75 -3.21875 C 3.957031 -5.882812 2.5625 -9.8125 2.5625 -15 L 2.5625 -42.25 L 12.1875 -42.25 L 12.1875 -17.8125 C 12.1875 -14.40625 12.722656 -12.035156 13.796875 -10.703125 C 14.867188 -9.367188 16.617188 -8.703125 19.046875 -8.703125 C 21.472656 -8.703125 23.222656 -9.367188 24.296875 -10.703125 C 25.367188 -12.035156 25.90625 -14.40625 25.90625 -17.8125 L 25.90625 -42.25 Z M 35.53125 -42.25 "/></g></g></g><g fill="#d9d9d9" fill-opacity="1"><g transform="translate(105.592513, 198.743526)"><g><path d="M 38 0 L 36 -25.03125 L 35.734375 -25.03125 L 27.09375 -0.25 L 21.359375 -0.25 L 12.703125 -25.03125 L 12.4375 -25.03125 L 10.453125 0 L 0.8125 0 L 4.609375 -42.25 L 14.84375 -42.25 L 24.21875 -17.875 L 33.59375 -42.25 L 43.828125 -42.25 L 47.625 0 Z M 38 0 "/></g></g></g><g fill="#d9d9d9" fill-opacity="1"><g transform="translate(149.212879, 198.743526)"><g><path d="M 3.078125 -42.25 L 18.484375 -42.25 C 22.785156 -42.25 26.265625 -41.140625 28.921875 -38.921875 C 31.585938 -36.703125 32.921875 -33.472656 32.921875 -29.234375 C 32.921875 -25.003906 31.570312 -21.6875 28.875 -19.28125 C 26.175781 -16.875 22.710938 -15.671875 18.484375 -15.671875 L 12.703125 -15.671875 L 12.703125 0 L 3.078125 0 Z M 12.703125 -23.34375 L 15.40625 -23.34375 C 17.5625 -23.34375 19.328125 -23.773438 20.703125 -24.640625 C 22.085938 -25.515625 22.78125 -26.945312 22.78125 -28.9375 C 22.78125 -30.945312 22.085938 -32.382812 20.703125 -33.25 C 19.328125 -34.125 17.5625 -34.5625 15.40625 -34.5625 L 12.703125 -34.5625 Z M 12.703125 -23.34375 "/></g></g></g><g fill="#d9d9d9" fill-opacity="1"><g transform="translate(178.497439, 198.743526)"><g><path d="M 18.640625 -43.015625 C 20.921875 -43.015625 23.15625 -42.679688 25.34375 -42.015625 C 27.53125 -41.347656 29.148438 -40.691406 30.203125 -40.046875 L 31.75 -39.015625 L 27.859375 -31.34375 C 27.546875 -31.539062 27.113281 -31.800781 26.5625 -32.125 C 26.019531 -32.445312 25 -32.878906 23.5 -33.421875 C 22 -33.972656 20.597656 -34.25 19.296875 -34.25 C 17.691406 -34.25 16.453125 -33.90625 15.578125 -33.21875 C 14.710938 -32.539062 14.28125 -31.625 14.28125 -30.46875 C 14.28125 -29.882812 14.484375 -29.34375 14.890625 -28.84375 C 15.304688 -28.351562 16.007812 -27.828125 17 -27.265625 C 17.988281 -26.703125 18.859375 -26.25 19.609375 -25.90625 C 20.359375 -25.5625 21.519531 -25.050781 23.09375 -24.375 C 25.820312 -23.207031 28.148438 -21.625 30.078125 -19.625 C 32.003906 -17.632812 32.96875 -15.378906 32.96875 -12.859375 C 32.96875 -10.429688 32.53125 -8.3125 31.65625 -6.5 C 30.789062 -4.6875 29.597656 -3.269531 28.078125 -2.25 C 26.566406 -1.226562 24.890625 -0.472656 23.046875 0.015625 C 21.203125 0.515625 19.203125 0.765625 17.046875 0.765625 C 15.203125 0.765625 13.390625 0.578125 11.609375 0.203125 C 9.835938 -0.171875 8.351562 -0.640625 7.15625 -1.203125 C 5.96875 -1.765625 4.894531 -2.316406 3.9375 -2.859375 C 2.988281 -3.410156 2.289062 -3.875 1.84375 -4.25 L 1.171875 -4.8125 L 5.984375 -12.90625 C 6.398438 -12.5625 6.960938 -12.125 7.671875 -11.59375 C 8.390625 -11.0625 9.660156 -10.351562 11.484375 -9.46875 C 13.316406 -8.582031 14.929688 -8.140625 16.328125 -8.140625 C 20.390625 -8.140625 22.421875 -9.519531 22.421875 -12.28125 C 22.421875 -12.863281 22.273438 -13.398438 21.984375 -13.890625 C 21.703125 -14.390625 21.191406 -14.882812 20.453125 -15.375 C 19.722656 -15.875 19.078125 -16.269531 18.515625 -16.5625 C 17.953125 -16.851562 17.03125 -17.296875 15.75 -17.890625 C 14.46875 -18.492188 13.519531 -18.945312 12.90625 -19.25 C 10.34375 -20.507812 8.359375 -22.085938 6.953125 -23.984375 C 5.554688 -25.878906 4.859375 -27.921875 4.859375 -30.109375 C 4.859375 -33.898438 6.257812 -37 9.0625 -39.40625 C 11.863281 -41.8125 15.054688 -43.015625 18.640625 -43.015625 Z M 18.640625 -43.015625 "/></g></g></g><g fill="#d9d9d9" fill-opacity="1"><g transform="translate(208.089203, 198.743526)"><g><path d="M 0.40625 -33.796875 L 0.40625 -42.25 L 30.109375 -42.25 L 30.109375 -33.796875 L 20.078125 -33.796875 L 20.078125 0 L 10.453125 0 L 10.453125 -33.796875 Z M 0.40625 -33.796875 "/></g></g></g><g fill="#d9d9d9" fill-opacity="1"><g transform="translate(233.789816, 198.743526)"><g><path d="M 24.53125 -42.25 L 41.578125 0 L 31.234375 0 L 28.109375 -8.453125 L 12.03125 -8.453125 L 8.90625 0 L -1.4375 0 L 15.609375 -42.25 Z M 24.828125 -16.890625 L 20.125 -29.1875 L 20.015625 -29.1875 L 15.3125 -16.890625 Z M 24.828125 -16.890625 "/></g></g></g><g fill="#d9d9d9" fill-opacity="1"><g transform="translate(269.115894, 198.743526)"><g><path d="M 3.078125 -42.25 L 18.171875 -42.25 C 22.234375 -42.25 25.546875 -41.160156 28.109375 -38.984375 C 30.671875 -36.816406 31.953125 -33.722656 31.953125 -29.703125 C 31.953125 -26.585938 31.175781 -23.976562 29.625 -21.875 C 28.070312 -19.78125 25.960938 -18.304688 23.296875 -17.453125 L 37.84375 0 L 25.59375 0 L 12.703125 -16.6875 L 12.703125 0 L 3.078125 0 Z M 12.703125 -23.5 L 13.828125 -23.5 C 14.710938 -23.5 15.460938 -23.515625 16.078125 -23.546875 C 16.691406 -23.585938 17.390625 -23.707031 18.171875 -23.90625 C 18.960938 -24.113281 19.59375 -24.40625 20.0625 -24.78125 C 20.539062 -25.15625 20.953125 -25.703125 21.296875 -26.421875 C 21.640625 -27.140625 21.8125 -28.007812 21.8125 -29.03125 C 21.8125 -30.050781 21.640625 -30.921875 21.296875 -31.640625 C 20.953125 -32.359375 20.539062 -32.90625 20.0625 -33.28125 C 19.59375 -33.65625 18.960938 -33.941406 18.171875 -34.140625 C 17.390625 -34.347656 16.691406 -34.46875 16.078125 -34.5 C 15.460938 -34.539062 14.710938 -34.5625 13.828125 -34.5625 L 12.703125 -34.5625 Z M 12.703125 -23.5 "/></g></g></g><g fill="#d9d9d9" fill-opacity="1"><g transform="translate(300.960428, 198.743526)"><g><path d="M 0.40625 -33.796875 L 0.40625 -42.25 L 30.109375 -42.25 L 30.109375 -33.796875 L 20.078125 -33.796875 L 20.078125 0 L 10.453125 0 L 10.453125 -33.796875 Z M 0.40625 -33.796875 "/></g></g></g><g fill="#d9d9d9" fill-opacity="1"><g transform="translate(165.143447, 212.619406)"><g><path d="M 3.046875 0.109375 C 2.546875 0.109375 2.101562 0.0390625 1.71875 -0.09375 C 1.332031 -0.238281 0.960938 -0.472656 0.609375 -0.796875 C 0.460938 -0.921875 0.390625 -1.0625 0.390625 -1.21875 C 0.390625 -1.34375 0.4375 -1.453125 0.53125 -1.546875 C 0.632812 -1.648438 0.75 -1.703125 0.875 -1.703125 C 0.988281 -1.703125 1.085938 -1.664062 1.171875 -1.59375 C 1.453125 -1.332031 1.738281 -1.140625 2.03125 -1.015625 C 2.320312 -0.898438 2.648438 -0.84375 3.015625 -0.84375 C 3.453125 -0.84375 3.816406 -0.941406 4.109375 -1.140625 C 4.410156 -1.335938 4.5625 -1.585938 4.5625 -1.890625 C 4.5625 -2.253906 4.414062 -2.53125 4.125 -2.71875 C 3.832031 -2.914062 3.382812 -3.082031 2.78125 -3.21875 C 2.070312 -3.363281 1.523438 -3.597656 1.140625 -3.921875 C 0.765625 -4.253906 0.578125 -4.710938 0.578125 -5.296875 C 0.578125 -5.703125 0.679688 -6.054688 0.890625 -6.359375 C 1.109375 -6.671875 1.40625 -6.910156 1.78125 -7.078125 C 2.15625 -7.242188 2.582031 -7.328125 3.0625 -7.328125 C 3.488281 -7.328125 3.890625 -7.253906 4.265625 -7.109375 C 4.648438 -6.972656 4.957031 -6.789062 5.1875 -6.5625 C 5.34375 -6.425781 5.421875 -6.28125 5.421875 -6.125 C 5.421875 -6 5.375 -5.890625 5.28125 -5.796875 C 5.1875 -5.703125 5.078125 -5.65625 4.953125 -5.65625 C 4.859375 -5.65625 4.78125 -5.679688 4.71875 -5.734375 C 4.53125 -5.910156 4.28125 -6.0625 3.96875 -6.1875 C 3.65625 -6.3125 3.351562 -6.375 3.0625 -6.375 C 2.601562 -6.375 2.238281 -6.28125 1.96875 -6.09375 C 1.695312 -5.90625 1.5625 -5.65625 1.5625 -5.34375 C 1.5625 -5.007812 1.695312 -4.75 1.96875 -4.5625 C 2.238281 -4.382812 2.640625 -4.234375 3.171875 -4.109375 C 3.710938 -3.992188 4.148438 -3.859375 4.484375 -3.703125 C 4.828125 -3.546875 5.09375 -3.328125 5.28125 -3.046875 C 5.46875 -2.765625 5.5625 -2.394531 5.5625 -1.9375 C 5.5625 -1.539062 5.445312 -1.1875 5.21875 -0.875 C 5 -0.5625 4.695312 -0.316406 4.3125 -0.140625 C 3.925781 0.0234375 3.503906 0.109375 3.046875 0.109375 Z M 3.046875 0.109375 "/></g></g></g><g fill="#d9d9d9" fill-opacity="1"><g transform="translate(177.858719, 212.619406)"><g><path d="M 3.421875 -5.5 C 4.628906 -5.5 5.234375 -4.75 5.234375 -3.25 L 5.234375 -0.5 C 5.234375 -0.351562 5.1875 -0.234375 5.09375 -0.140625 C 5 -0.046875 4.882812 0 4.75 0 C 4.601562 0 4.484375 -0.046875 4.390625 -0.140625 C 4.304688 -0.234375 4.265625 -0.351562 4.265625 -0.5 L 4.265625 -3.25 C 4.265625 -4.144531 3.882812 -4.59375 3.125 -4.59375 C 2.71875 -4.59375 2.378906 -4.460938 2.109375 -4.203125 C 1.847656 -3.941406 1.71875 -3.625 1.71875 -3.25 L 1.71875 -0.5 C 1.71875 -0.351562 1.671875 -0.234375 1.578125 -0.140625 C 1.484375 -0.046875 1.363281 0 1.21875 0 C 1.070312 0 0.953125 -0.046875 0.859375 -0.140625 C 0.773438 -0.234375 0.734375 -0.351562 0.734375 -0.5 L 0.734375 -7.140625 C 0.734375 -7.273438 0.78125 -7.390625 0.875 -7.484375 C 0.96875 -7.578125 1.082031 -7.625 1.21875 -7.625 C 1.363281 -7.625 1.484375 -7.578125 1.578125 -7.484375 C 1.671875 -7.390625 1.71875 -7.273438 1.71875 -7.140625 L 1.71875 -4.53125 C 1.882812 -4.789062 2.117188 -5.015625 2.421875 -5.203125 C 2.734375 -5.398438 3.066406 -5.5 3.421875 -5.5 Z M 3.421875 -5.5 "/></g></g></g><g fill="#d9d9d9" fill-opacity="1"><g transform="translate(190.54308, 212.619406)"><g><path d="M 5.84375 -2.703125 C 5.84375 -2.160156 5.722656 -1.675781 5.484375 -1.25 C 5.242188 -0.832031 4.914062 -0.5 4.5 -0.25 C 4.082031 -0.0078125 3.625 0.109375 3.125 0.109375 C 2.625 0.109375 2.164062 -0.0078125 1.75 -0.25 C 1.332031 -0.5 1.003906 -0.832031 0.765625 -1.25 C 0.523438 -1.675781 0.40625 -2.160156 0.40625 -2.703125 C 0.40625 -3.234375 0.523438 -3.71875 0.765625 -4.15625 C 1.003906 -4.59375 1.332031 -4.929688 1.75 -5.171875 C 2.164062 -5.410156 2.625 -5.53125 3.125 -5.53125 C 3.625 -5.53125 4.082031 -5.410156 4.5 -5.171875 C 4.914062 -4.929688 5.242188 -4.59375 5.484375 -4.15625 C 5.722656 -3.71875 5.84375 -3.234375 5.84375 -2.703125 Z M 4.875 -2.703125 C 4.875 -3.078125 4.796875 -3.410156 4.640625 -3.703125 C 4.484375 -3.992188 4.269531 -4.21875 4 -4.375 C 3.738281 -4.539062 3.445312 -4.625 3.125 -4.625 C 2.800781 -4.625 2.503906 -4.539062 2.234375 -4.375 C 1.972656 -4.21875 1.765625 -3.992188 1.609375 -3.703125 C 1.453125 -3.410156 1.375 -3.078125 1.375 -2.703125 C 1.375 -2.335938 1.453125 -2.007812 1.609375 -1.71875 C 1.765625 -1.4375 1.972656 -1.210938 2.234375 -1.046875 C 2.503906 -0.878906 2.800781 -0.796875 3.125 -0.796875 C 3.445312 -0.796875 3.738281 -0.878906 4 -1.046875 C 4.269531 -1.210938 4.484375 -1.4375 4.640625 -1.71875 C 4.796875 -2.007812 4.875 -2.335938 4.875 -2.703125 Z M 4.875 -2.703125 "/></g></g></g><g fill="#d9d9d9" fill-opacity="1"><g transform="translate(203.505568, 212.619406)"><g><path d="M 3.4375 -5.5 C 3.90625 -5.5 4.328125 -5.378906 4.703125 -5.140625 C 5.085938 -4.898438 5.390625 -4.566406 5.609375 -4.140625 C 5.828125 -3.710938 5.9375 -3.234375 5.9375 -2.703125 C 5.9375 -2.160156 5.828125 -1.675781 5.609375 -1.25 C 5.390625 -0.832031 5.085938 -0.503906 4.703125 -0.265625 C 4.328125 -0.0234375 3.914062 0.09375 3.46875 0.09375 C 3.101562 0.09375 2.765625 0.015625 2.453125 -0.140625 C 2.148438 -0.296875 1.90625 -0.488281 1.71875 -0.71875 L 1.71875 1.5625 C 1.71875 1.707031 1.671875 1.828125 1.578125 1.921875 C 1.484375 2.015625 1.363281 2.0625 1.21875 2.0625 C 1.082031 2.0625 0.96875 2.015625 0.875 1.921875 C 0.78125 1.828125 0.734375 1.707031 0.734375 1.5625 L 0.734375 -4.921875 C 0.734375 -5.066406 0.773438 -5.1875 0.859375 -5.28125 C 0.953125 -5.375 1.070312 -5.421875 1.21875 -5.421875 C 1.363281 -5.421875 1.484375 -5.375 1.578125 -5.28125 C 1.671875 -5.1875 1.71875 -5.066406 1.71875 -4.921875 L 1.71875 -4.625 C 1.875 -4.863281 2.109375 -5.066406 2.421875 -5.234375 C 2.742188 -5.410156 3.082031 -5.5 3.4375 -5.5 Z M 3.328125 -0.8125 C 3.648438 -0.8125 3.9375 -0.894531 4.1875 -1.0625 C 4.4375 -1.226562 4.628906 -1.453125 4.765625 -1.734375 C 4.910156 -2.023438 4.984375 -2.347656 4.984375 -2.703125 C 4.984375 -3.054688 4.910156 -3.375 4.765625 -3.65625 C 4.628906 -3.945312 4.4375 -4.175781 4.1875 -4.34375 C 3.9375 -4.507812 3.648438 -4.59375 3.328125 -4.59375 C 3.003906 -4.59375 2.710938 -4.507812 2.453125 -4.34375 C 2.203125 -4.1875 2.003906 -3.960938 1.859375 -3.671875 C 1.722656 -3.378906 1.65625 -3.054688 1.65625 -2.703125 C 1.65625 -2.347656 1.722656 -2.023438 1.859375 -1.734375 C 2.003906 -1.441406 2.203125 -1.210938 2.453125 -1.046875 C 2.710938 -0.890625 3.003906 -0.8125 3.328125 -0.8125 Z M 3.328125 -0.8125 "/></g></g></g><path stroke-linecap="butt" transform="matrix(-0.75, 0, 0, -0.75, 350.561993, 146.544893)" fill="none" stroke-linejoin="miter" d="M -0.00067536 5.002566 L 84.431622 5.002566 " stroke="#d9d9d9" stroke-width="10" stroke-opacity="1" stroke-miterlimit="4"/><path stroke-linecap="butt" transform="matrix(0, -0.75, 0.75, 0, 343.065832, 203.138571)" fill="none" stroke-linejoin="miter" d="M 0.00247028 5.000767 L 82.460809 5.000767 " stroke="#d9d9d9" stroke-width="10" stroke-opacity="1" stroke-miterlimit="4"/><path stroke-linecap="butt" transform="matrix(0.749999, -0.00138254, 0.00138254, 0.749999, 33.37357, 209.475615)" fill="none" stroke-linejoin="miter" d="M -0.00210492 5.001269 L 84.43555 5.00067 " stroke="#d9d9d9" stroke-width="10" stroke-opacity="1" stroke-miterlimit="4"/><path stroke-linecap="butt" transform="matrix(0.00138254, 0.749999, -0.749999, 0.00138254, 40.765391, 152.868228)" fill="none" stroke-linejoin="miter" d="M -0.00018648 4.999697 L 82.463504 5.000669 " stroke="#d9d9d9" stroke-width="10" stroke-opacity="1" stroke-miterlimit="4"/></svg>